<?xml version="1.0" encoding="utf-8"?>
<!-- Generator: Adobe Illustrator 24.3.0, SVG Export Plug-In . SVG Version: 6.00 Build 0)  -->
<svg version="1.1" id="Layer_1" xmlns="http://www.w3.org/2000/svg" xmlns:xlink="http://www.w3.org/1999/xlink" x="0px" y="0px"
	 viewBox="0 0 100 100" style="enable-background:new 0 0 100 100;" xml:space="preserve">
<style type="text/css">
	.st0{fill:#0043FF;}
</style>
<path class="st0" d="M50,1C22.9,1,1,22.9,1,50s21.9,49,49,49s49-21.9,49-49S77.1,1,50,1z M59.2,15.8c0,18.3-14.9,33.1-33.1,33.1
	c-6.4,0-12.3-1.8-17.4-5c0.4-2.6,1-5.1,1.8-7.5c4.3,3.3,9.7,5.2,15.5,5.2c14.3,0,25.8-11.6,25.8-25.8c0-2.6-0.4-5.1-1.2-7.5
	c2.6,0,5.2,0.3,7.7,0.9C59,11.3,59.2,13.5,59.2,15.8z M30.1,15.8c0,2.2-1.8,4-4,4c-1.3,0-2.4-0.6-3.1-1.5c2-1.7,4.2-3.2,6.5-4.6
	C29.9,14.3,30.1,15,30.1,15.8z M17.8,23.4c2.1,2.2,5,3.6,8.3,3.6c6.2,0,11.3-5,11.3-11.3c0-1.9-0.5-3.6-1.3-5.1
	c2.3-0.8,4.7-1.4,7.2-1.8c0.9,2.2,1.4,4.5,1.4,7c0,10.2-8.3,18.6-18.6,18.6c-4.8,0-9.1-1.8-12.4-4.8C14.9,27.4,16.3,25.3,17.8,23.4z
	 M8.3,52c5.4,2.6,11.4,4.1,17.8,4.1c22.3,0,40.4-18.1,40.4-40.4c0-1.4-0.1-2.8-0.2-4.2c13,5.5,22.7,17.5,25,32l-7.6-7.6L56.5,63
	L50,56.5L23.9,82.5C14.9,75.3,8.9,64.4,8.3,52z M50,91.7c-7.2,0-14-1.8-19.9-5.1L50,66.8l14.4,14.4c2.3-1.1,4.4-2.4,6.4-3.9
	l-9.2-9.2l21.9-21.9l7.9,7.9C89.4,75.2,71.6,91.7,50,91.7z"/>
</svg>
